<?xml version="1.0" encoding="utf-8"?>
<!-- Generator: Adobe Illustrator 24.3.0, SVG Export Plug-In . SVG Version: 6.00 Build 0)  -->
<svg version="1.1" xmlns="http://www.w3.org/2000/svg" xmlns:xlink="http://www.w3.org/1999/xlink" x="0px" y="0px"
	 viewBox="0 0 927 927" style="enable-background:new 0 0 927 927;" xml:space="preserve">
<style type="text/css">
	.st0{display:none;}
	.st1{display:inline;}
	.st2{fill:#231F20;}
</style>
<g id="Layer_1" class="st0">
	<g transform="translate(0.000000,927.000000) scale(0.100000,-0.100000)" class="st1">
		<path d="M6158,8455c-1-2-37-6-78-10c-70-6-107-10-170-20c-463-73-891-235-1254-477c-49-32-95-57-103-54c-7,3-39,23-71,44
			c-300,203-698,378-997,438c-129,26-221,41-310,50c-38,3-79,8-90,11c-23,4-373,3-450-1c-82-5-199-19-280-33c-16-2-39-6-50-7
			c-11-2-33-6-50-9c-16-4-46-9-65-12s-43-8-52-11s-25-7-37-9c-71-13-298-85-411-128c-134-52-338-150-420-202c-22-14-42-25-45-25
			c-11,0-289-194-315-220c-3-3-34-30-70-60c-244-205-502-538-623-802c-13-29-34-73-45-98c-43-95-102-292-136-455L1,6195l2-2275
			c2-1251,6-2291,10-2310c63-283,252-528,518-669c62-32,277-116,287-111c3,2,77-10,107-17c69-16,287-9,403,12c58,11,72,14,163,45
			c293,98,535,322,639,592c61,159,58,40,59,2398c0,1556,3,2169,11,2205c16,72,67,161,126,221c138,140,345,215,570,207
			c286-10,533-164,620-388c19-49,19-100,20-2240l2-2190l21-89c50-208,153-373,331-527c129-112,377-220,565-245c69-9,268-10,335-1
			c319,41,607,211,778,460c48,69,109,201,134,292l23,80l3,2205c2,1966,4,2211,18,2259c66,229,344,402,649,404c309,2,582-161,661-396
			c17-49,18-177,20-2227c1-1575,4-2193,12-2240c67-387,382-699,802-797c103-23,147-28,280-28c175,1,325,27,435,75c11,5,38,16,60,25
			c60,24,173,93,235,144c187,152,304,340,351,566c10,47,13,540,14,2295c0,1229-3,2262-7,2295s-12,78-17,100s-15,67-21,100
			c-44,227-148,492-274,698c-22,37-45,76-51,85c-69,120-366,452-494,553c-24,18-58,46-75,60c-47,40-241,170-326,219
			c-354,205-774,346-1180,395c-25,3-67,8-95,11C6673,8453,6164,8461,6158,8455z M6740,8025c332-43,680-150,950-291
			c95-50,338-205,372-236c7-7,38-33,68-58c141-115,321-318,422-475c137-214,211-400,268-674l28-135l-2-2220l-2-2221l-22-65
			c-74-219-302-380-577-407c-320-32-629,139-727,402l-22,60l-2,2178c-1,1198-5,2201-8,2229c-4,27-18,86-32,130
			c-141,446-651,740-1184,683c-385-42-710-250-867-555c-50-96-72-169-89-290c-3-25-6-1008-6-2185c0-1215-4-2162-9-2190
			c-29-163-177-328-365-407c-186-79-437-75-622,9c-162,73-280,197-332,348c-20,57-20,87-21,2094c-1,2276-1,2298-22,2397
			c-84,395-468,709-927,759c-73,8-240,9-285,2c-16-3-50-8-75-12c-248-37-511-179-663-358c-95-111-173-266-204-407
			c-4-19-8-1014-10-2210c-2-1555-6-2192-14-2235c-36-195-217-369-451-435c-383-108-802,97-879,429c-11,48-16,4437-5,4496
			c51,273,107,447,202,625c40,74,147,246,163,260c4,3,31,37,62,75c85,105,267,282,342,334c12,8,24,18,27,21c6,8,213,147,250,169
			c282,164,686,302,980,337c25,3,56,7,70,9c129,23,541,23,659,0c9-1,39-6,66-9c28-4,91-16,140-27c50-12,97-22,106-24
			c76-16,295-102,435-171c158-78,373-210,469-288c108-89,208-97,301-26c276,211,511,339,794,434c95,31,168,53,195,57c6,1,30,7,55,15
			c65,19,266,53,352,60c40,3,75,8,77,10C6175,8042,6685,8033,6740,8025z"/>
	</g>
</g>
<g id="Layer_2">
	<rect class="st2" width="927" height="927"/>
	
		<image style="overflow:visible;" width="1014" height="1014" xlink:href="Head-Gold_White.png"  transform="matrix(0.9093 0 0 0.9093 5 5)">
	</image>
</g>
</svg>
